<?xml version="1.0" standalone="no"?><!DOCTYPE svg PUBLIC "-//W3C//DTD SVG 1.1//EN" "http://www.w3.org/Graphics/SVG/1.1/DTD/svg11.dtd"><svg t="1508212831929" class="icon" style="" viewBox="0 0 1024 1024" version="1.1" xmlns="http://www.w3.org/2000/svg" p-id="7904" xmlns:xlink="http://www.w3.org/1999/xlink" width="200" height="200"><defs><style type="text/css"></style></defs><path d="M277.4 747.8c3.1-0.3 4.6-2.2 4.3-5.3-0.5-4.1-1.9-7.8-2.3-12-2.5-23.1 20.5-74.7 30.4-96.3 44.2-97.8 44.3-96.8 43.2-106.8-0.6-5.2-9.4-23-18.4-22.1-9.6 1-46.1 28.3-56.7 36.1-7.8 5.7-14.3 9.6-13.9 19.6-0.1 2.1-0.2 8 3.6 7.6 1.4-0.2 7.6-3.6 8.9-4.5l31.4-15.9 0.8 0.6c-8.6 14.2-32.5 54.1-53.1 98.5-7.6 16.5-18.3 56.3-16.5 73.6 1.9 17.9 17 18.7 30.9 24.5 1.6 1 5.7 2.6 7.4 2.4z m298-203.7c-1.5-13.8-5.1-30.8-21.1-34 2.2-2.7 10.4-3.6 10-7.4-0.8-7.6-19.5-22.3-33.6-20.8-22.4 2.4-72.2 35-98.9 71.7-22.4 31-42.6 76.4-38.4 115.3 3.2 29.3 25.1 58.6 56.6 52.8 82.3-14.7 132.5-111.4 125.4-177.6z m-60.9 88.2L484.1 667c-7.1 8.1-27.8 23.6-38.1 24.7-9.6 1-13.2-18.8-13.5-25.4-1.8-35.7 20.2-87.6 78.4-129.1 0.2 2.1 1.3 6.1 4.1 5.8 3.4-0.4 11-14.1 20-15.1 9.6-1 14.5 11.7 15.3 18.9 2.4 22.8-22.5 67-35.8 85.5zM770 523.1c-1.5-13.8-5.1-30.8-21.1-34 2.2-2.7 10.4-3.6 10-7.4-0.8-7.6-19.5-22.3-33.6-20.8-22.4 2.4-72.2 35-98.9 71.7-22.4 31-42.6 76.4-38.4 115.3 3.2 29.3 25.1 58.6 56.6 52.8C727 686 777.2 589.3 770 523.1z m-60.9 88.2L678.7 646c-7.1 8.1-27.8 23.6-38.1 24.7-9.6 1-13.2-18.8-13.5-25.4-1.8-35.7 20.2-87.6 78.4-129.1 0.2 2.1 1.4 6.1 4.1 5.8 3.4-0.4 11-14.1 20-15.1 9.6-1 14.5 11.7 15.3 18.9 2.4 22.8-22.4 66.9-35.8 85.5z m-56.9 124.8c13.6-2.2 38.7-5.4 38.7-5.4-260.7 15.9-444.2 94.1-441 92.6 0 0-10.3 6.7 0 11.4 5.2 2.4 35.4-11.4 35.4-11.4 207.1-73.5 445.9-92.6 445.9-92.6-28.3 1.1-79 5.4-79 5.4z" fill="#d4237a" p-id="7905"></path><path d="M731.2 751.4c-286.4 17.4-441 92.6-441 92.6s-10.3 6.7 0 11.4c5.2 2.4 35.4-11.4 35.4-11.4 214.6-76.2 215.5-74.2 445.9-92.6-28.3 1.1-78.9 5.4-78.9 5.4 13.5-2.1 38.6-5.4 38.6-5.4zM687 264.9H320.1c-14.8 0-26.9-12.1-26.9-26.9 0-14.8 12.1-26.9 26.9-26.9H687c14.8 0 26.9 12.1 26.9 26.9 0 14.8-12.1 26.9-26.9 26.9z m0 121.7H320.1c-14.8 0-26.9-12.1-26.9-26.9 0-14.8 12.1-26.9 26.9-26.9H687c14.8 0 26.9 12.1 26.9 26.9 0 14.8-12.1 26.9-26.9 26.9z" fill="#d4237a" p-id="7906"></path><path d="M313.2 959.6c-70.2 0-122.6 0-134.7-0.1-23.3-0.2-41.2-11.5-50.5-32-6.4-14.1-6.5-27.8-6.5-29.3V121.8c0-22.8 12.1-40.8 34-50.7 14.8-6.7 29.1-7.5 30.7-7.5h649.6l1.1 0.2c15.8 2.4 45.6 16.8 45.6 53.9v791.2c0 1.3-0.6 13.4-8 25.4-7 11.5-21.4 25.1-50.1 25.1h-225c-95.1 0.1-203.1 0.2-286.2 0.2z m-125.9-866c-1.7 0.1-11.1 1-20.1 5.2-14.1 6.6-15.7 16.3-15.7 23v776.4c0 0.1 0.1 9.1 4.1 17.5 4.5 9.3 11.8 13.7 23.1 13.8 26.2 0.2 245.1 0.1 420.9 0 109.2 0 203.5-0.1 224.8 0h0.1c12 0 20-3.5 24.5-10.8 3-4.8 3.5-9.9 3.6-10.5V117.7c0-18.2-14.5-23-19.3-24.1h-646z" fill="#d4237a" p-id="7907"></path></svg>