<?xml version="1.0" standalone="no"?><!DOCTYPE svg PUBLIC "-//W3C//DTD SVG 1.1//EN" "http://www.w3.org/Graphics/SVG/1.1/DTD/svg11.dtd"><svg t="1508212985159" class="icon" style="" viewBox="0 0 1024 1024" version="1.1" xmlns="http://www.w3.org/2000/svg" p-id="8655" xmlns:xlink="http://www.w3.org/1999/xlink" width="200" height="200"><defs><style type="text/css"></style></defs><path d="M160.402223 361.164666l162.834622 0 0 162.834622-162.834622 0 0-162.834622Z" p-id="8656" fill="#d4237a"></path><path d="M339.418386 362.597295l162.834622 0 0 162.834622-162.834622 0 0-162.834622Z" p-id="8657" fill="#d4237a"></path><path d="M518.434549 362.597295l162.834622 0 0 162.834622-162.834622 0 0-162.834622Z" p-id="8658" fill="#d4237a"></path><path d="M697.450712 361.164666l162.834622 0 0 162.834622-162.834622 0 0-162.834622Z" p-id="8659" fill="#d4237a"></path><path d="M158.895917 554.694381l162.834622 0 0 162.834622-162.834622 0 0-162.834622Z" p-id="8660" fill="#d4237a"></path><path d="M338.532203 555.410696l162.834622 0 0 162.834622-162.834622 0 0-162.834622Z" p-id="8661" fill="#d4237a"></path><path d="M518.16849 555.410696l162.834622 0 0 162.834622-162.834622 0 0-162.834622Z" p-id="8662" fill="#d4237a"></path><path d="M697.804776 554.694381l162.834622 0 0 162.834622-162.834622 0 0-162.834622Z" p-id="8663" fill="#d4237a"></path><path d="M160.402223 737.991034l162.834622 0 0 162.834622-162.834622 0 0-162.834622Z" p-id="8664" fill="#d4237a"></path><path d="M339.5463 737.991034l162.834622 0 0 162.834622-162.834622 0 0-162.834622Z" p-id="8665" fill="#d4237a"></path><path d="M518.690376 737.991034l162.834622 0 0 162.834622-162.834622 0 0-162.834622Z" p-id="8666" fill="#d4237a"></path><path d="M697.835476 737.991034l162.834622 0 0 162.834622-162.834622 0 0-162.834622Z" p-id="8667" fill="#d4237a"></path><path d="M838.388629 179.411159l-56.325843 0 0-59.361993c0-33.571606-27.312042-60.883649-60.883649-60.883649l-26.096355 0c-33.571606 0-60.883649 27.312042-60.883649 60.883649l0 59.361993L389.347542 179.411159l0-59.361993c0-33.571606-27.312042-60.883649-60.883649-60.883649l-26.096355 0c-33.571606 0-60.883649 27.312042-60.883649 60.883649l0 59.361993-54.165644 0c-48.870034 0-88.62855 39.758516-88.62855 88.62855l0 597.694731c0 48.870034 39.759539 88.62855 88.62855 88.62855L838.388629 954.36299c48.870034 0 88.627527-39.758516 88.627527-88.62855L927.016155 268.039709C927.017178 219.169675 887.258663 179.411159 838.388629 179.411159zM675.363671 122.338303c0-11.000542 8.949836-19.951401 19.951401-19.951401l26.095331 0c11.001565 0 19.952424 8.950859 19.952424 19.951401l0 131.565455c0 11.001565-8.950859 19.952424-19.952424 19.952424l-26.095331 0c-11.001565 0-19.951401-8.950859-19.951401-19.952424L675.363671 122.338303zM280.576233 122.338303c0-11.000542 8.950859-19.951401 19.952424-19.951401l26.095331 0c11.001565 0 19.951401 8.950859 19.951401 19.951401l0 131.565455c0 11.001565-8.949836 19.952424-19.951401 19.952424L300.528658 273.856182c-11.001565 0-19.952424-8.950859-19.952424-19.952424L280.576233 122.338303zM886.766452 869.911576c0 26.770713-21.702278 48.472991-48.472991 48.472991L184.979992 918.384567c-26.770713 0-48.472991-21.702278-48.472991-48.472991L136.507 343.605755l750.259452 0L886.766452 869.911576z" p-id="8668" fill="#d4237a"></path></svg>