<?xml version="1.0" standalone="no"?><!DOCTYPE svg PUBLIC "-//W3C//DTD SVG 1.1//EN" "http://www.w3.org/Graphics/SVG/1.1/DTD/svg11.dtd"><svg t="1508212014798" class="icon" style="" viewBox="0 0 1024 1024" version="1.1" xmlns="http://www.w3.org/2000/svg" p-id="6548" xmlns:xlink="http://www.w3.org/1999/xlink" width="200" height="200"><defs><style type="text/css"></style></defs><path d="M477.959 956.02H956.04V65.799H197.704v890.22h280.255z m263.77-626.452l32.97-148.37h32.971l32.97 148.37 32.972-148.37h32.97l-32.97 197.826h-49.457l-34.613-150.012-31.33 150.012h-49.456l-32.97-197.826h32.97l32.972 148.37z m-98.915-148.37v32.97h-98.912v49.457h98.913v32.971h-98.913v49.456h98.913v32.971H510.931V181.198h131.883z m-280.254 0l65.942 131.885V181.198h49.457v197.826h-49.457l-67.584-135.176 1.642 135.176h-49.456V181.198h49.456z m181.342 280.254v49.456H313.103v-49.456h230.799zM313.103 642.794v-49.457h230.799v49.457H313.103z m0 82.427h230.799v49.457H313.103V725.22z m296.74-263.77h263.77v313.227h-263.77V461.452zM164.733 247.14H65.82v710.53l98.914-1.65V247.14z" fill="#d4237a" p-id="6549"></path></svg>