<?xml version="1.0" standalone="no"?><!DOCTYPE svg PUBLIC "-//W3C//DTD SVG 1.1//EN" "http://www.w3.org/Graphics/SVG/1.1/DTD/svg11.dtd"><svg t="1508217804450" class="icon" style="" viewBox="0 0 1479 1024" version="1.1" xmlns="http://www.w3.org/2000/svg" p-id="24742" xmlns:xlink="http://www.w3.org/1999/xlink" width="288.8671875" height="200"><defs><style type="text/css"></style></defs><path d="M969.28 126.976L739.84 217.536V36.416z" fill="#d4237a" p-id="24743"></path><path d="M751.808 523.648V21.568c0-8.576-5.312-15.424-11.904-15.424s-11.968 6.912-11.968 15.424v502.08h23.872z" fill="#d4237a" p-id="24744"></path><path d="M7.808 991.936h16.064v-15.808zM1455.872 991.936h16.064l-16.064-15.808zM1479.808 999.616V992H1472z" fill="#d4237a" p-id="24745"></path><path d="M145.664 887.424v104.512h594.24V303.552z" fill="#d4237a" p-id="24746"></path><path d="M1334.144 887.424l-594.24-583.872v688.384h594.24z" fill="#d4237a" p-id="24747"></path><path d="M145.664 887.424v74.624a383.488 383.488 0 0 0 147.904 29.888c246.528 0 446.336-236.992 446.336-529.408V303.488l-594.24 583.872z" fill="#d4237a" p-id="24748"></path><path d="M739.904 303.552L145.664 887.04v104.512c236.544-183.744 580.672-477.632 594.24-603.328v-80.64c-0.128-1.344 0-3.968 0-3.968z" fill="#d4237a" p-id="24749"></path><path d="M739.904 303.552l594.24 583.488v104.512c-236.544-183.744-580.672-477.632-594.24-603.328v-80.64c0.192-1.344 0-3.968 0-3.968z" fill="#d4237a" p-id="24750"></path><path d="M145.664 856.512l-121.792 119.68v15.808h19.328l102.464-104.512 594.24-583.872V272.64z" fill="#d4237a" p-id="24751"></path><path d="M1334.144 856.512L739.904 272.64v30.976l594.24 583.872 102.464 104.512h19.328v-15.808z" fill="#d4237a" p-id="24752"></path><path d="M0 810.112v205.696h43.2v-205.696a15.424 15.424 0 0 0-15.488-15.424H15.488a15.424 15.424 0 0 0-15.488 15.424z" fill="#d4237a" p-id="24753"></path><path d="M1436.608 810.112v205.696h43.2v-205.696a15.424 15.424 0 0 0-15.488-15.424h-12.224a15.424 15.424 0 0 0-15.488 15.424z" fill="#d4237a" p-id="24754"></path><path d="M145.664 991.936H0v23.808h739.904v-23.808z" fill="#d4237a" p-id="24755"></path><path d="M1472 991.936H739.904v23.808h739.904v-16.192z" fill="#d4237a" p-id="24756"></path></svg>