<?xml version="1.0" standalone="no"?><!DOCTYPE svg PUBLIC "-//W3C//DTD SVG 1.1//EN" "http://www.w3.org/Graphics/SVG/1.1/DTD/svg11.dtd"><svg t="1508217426346" class="icon" style="" viewBox="0 0 1024 1024" version="1.1" xmlns="http://www.w3.org/2000/svg" p-id="17181" xmlns:xlink="http://www.w3.org/1999/xlink" width="200" height="200"><defs><style type="text/css"></style></defs><path d="M427.008 438.272c-5.12 0-10.24 0-15.36-1.024s-9.216-2.048-12.288-3.072c-6.144-3.072-11.264-7.168-15.36-14.336-3.072-5.12-5.12-11.264-6.144-18.432-1.024-4.096-2.048-7.168-2.048-11.264V389.12c-1.024-3.072-1.024-5.12-2.048-8.192v-1.024-2.048c0-1.024 0-1.024-1.024-2.048 0-1.024 0-2.048-1.024-3.072l-3.072-8.192-6.144-4.096-1.024-1.024v-2.048-15.36c0-1.024 1.024-2.048 2.048-2.048h1.024c1.024 0 3.072-1.024 4.096-1.024 8.192-1.024 16.384-2.048 25.6-3.072 9.216-1.024 19.456-2.048 32.768-2.048h2.048c14.336 0 28.672 1.024 43.008 4.096 8.192 1.024 16.384 4.096 22.528 6.144 5.12 2.048 9.216 3.072 12.288 3.072 2.048 0 4.096 1.024 6.144 1.024l-16.384 43.008c-2.048 4.096-3.072 8.192-5.12 12.288-4.096 8.192-10.24 15.36-17.408 21.504-4.096 3.072-9.216 6.144-15.36 8.192-7.168 2.048-14.336 3.072-23.552 4.096-3.072 0-5.12 1.024-8.192 1.024zM409.6 430.08c2.048 0 3.072 1.024 5.12 1.024 4.096 1.024 9.216 1.024 14.336 1.024 8.192 0 16.384-1.024 24.576-3.072 7.168-2.048 12.288-5.12 16.384-9.216 3.072-3.072 6.144-7.168 9.216-11.264 5.12-8.192 8.192-16.384 10.24-24.576 1.024-6.144 2.048-12.288 1.024-17.408l-1.024-10.24-9.216-5.12c-3.072-2.048-6.144-2.048-11.264-3.072h-1.024c-9.216-2.048-18.432-3.072-31.744-3.072h-4.096c-3.072 0-7.168 0-11.264 1.024-8.192 1.024-14.336 2.048-21.504 3.072l-10.24 1.024-3.072 11.264c0 2.048-1.024 3.072-1.024 5.12v1.024c-1.024 4.096-1.024 9.216 0 13.312 1.024 6.144 2.048 14.336 3.072 22.528 1.024 6.144 4.096 11.264 6.144 16.384 2.048 2.048 3.072 4.096 5.12 6.144l5.12 4.096h5.12z m193.536 7.168c-8.192 0-15.36-1.024-23.552-2.048-7.168-1.024-13.312-3.072-18.432-6.144-8.192-4.096-14.336-11.264-19.456-19.456l-9.216-18.432-17.408-43.008c4.096 0 9.216-1.024 13.312-2.048 2.048-1.024 5.12-2.048 7.168-2.048 2.048-1.024 4.096-1.024 6.144-2.048 8.192-2.048 16.384-4.096 26.624-5.12 10.24-1.024 20.48-2.048 30.72-2.048H614.4c7.168 0 15.36 1.024 22.528 1.024 9.216 1.024 18.432 2.048 28.672 4.096h2.048c1.024 0 1.024 1.024 1.024 2.048v13.312l-3.072-5.12-4.096 14.336-2.048 7.168-7.168 24.576 1.024-1.024c-2.048 6.144-3.072 13.312-6.144 19.456-2.048 4.096-4.096 8.192-6.144 10.24-4.096 5.12-8.192 7.168-15.36 9.216-5.12 2.048-11.264 2.048-17.408 3.072h-5.12z m-9.216-94.208h-10.24c-6.144 0-11.264 1.024-18.432 2.048-4.096 1.024-8.192 2.048-13.312 3.072l-12.288 4.096-1.024 12.288v2.048c0 5.12 1.024 10.24 2.048 15.36 3.072 11.264 7.168 21.504 14.336 29.696 6.144 7.168 13.312 11.264 21.504 13.312 9.216 2.048 17.408 3.072 25.6 3.072h1.024c5.12 0 11.264 0 17.408-2.048 5.12-1.024 9.216-3.072 12.288-6.144 3.072-3.072 5.12-6.144 7.168-11.264 3.072-9.216 5.12-19.456 6.144-30.72v-1.024-12.288-6.144l-1.024 1.024V358.4l-4.096-8.192-9.216-2.048c-10.24-3.072-20.48-4.096-33.792-4.096h-1.024l-3.072-1.024z m89.088 259.072L562.176 822.272l-18.432-52.224 32.768-66.56-66.56-66.56-66.56 66.56 32.768 66.56-21.504 53.248-115.712-221.184S88.064 734.208 88.064 865.28c0 35.84 15.36 69.632 51.2 69.632h743.424c35.84 0 51.2-32.768 51.2-69.632 1.024-121.856-250.88-263.168-250.88-263.168z m46.08-271.36v-10.24l-8.192-6.144c-1.024-1.024-2.048-1.024-3.072-2.048-18.432-152.576-17.408-241.664-195.584-215.04-62.464 9.216-131.072-10.24-169.984 18.432-49.152 46.08-52.224 113.664-38.912 194.56-3.072 2.048-6.144 3.072-9.216 5.12l-8.192 6.144v10.24c0 26.624 3.072 49.152 10.24 66.56 6.144 15.36 16.384 27.648 29.696 34.816 15.36 52.224 37.888 92.16 65.536 119.808 30.72 30.72 66.56 48.128 108.544 55.296l4.096 1.024 4.096-1.024c46.08-9.216 82.944-27.648 111.616-58.368 26.624-28.672 47.104-66.56 62.464-117.76 12.288-7.168 21.504-19.456 28.672-34.816 5.12-18.432 8.192-39.936 8.192-66.56z m-47.104 51.2c-3.072 8.192-8.192 14.336-14.336 16.384l-10.24 3.072-3.072 10.24c-13.312 49.152-30.72 84.992-55.296 109.568-22.528 23.552-51.2 37.888-87.04 46.08-31.744-6.144-59.392-19.456-81.92-43.008-24.576-25.6-45.056-61.44-58.368-111.616l-3.072-10.24-10.24-3.072c-6.144-2.048-11.264-7.168-14.336-16.384-4.096-8.192-6.144-19.456-7.168-32.768 10.24-1.024 20.48-4.096 26.624-1.024 1.024-2.048 1.024-4.096 2.048-6.144l1.024-4.096c3.072-11.264 6.144-84.992 9.216-96.256 1.024-3.072 2.048-7.168 4.096-10.24 14.336 19.456 122.88 21.504 186.368-21.504l-13.312 30.72 12.288 2.048 13.312-21.504-2.048 15.36 12.288 2.048 8.192-24.576c15.36 9.216 32.768 20.48 48.128 14.336 5.12 11.264 9.216 81.92 11.264 95.232l3.072 17.408h6.144l3.072 9.216c7.168-1.024 13.312-1.024 18.432-1.024 0 12.288-2.048 22.528-5.12 31.744z" p-id="17182" fill="#d4237a"></path></svg>