<?xml version="1.0" standalone="no"?><!DOCTYPE svg PUBLIC "-//W3C//DTD SVG 1.1//EN" "http://www.w3.org/Graphics/SVG/1.1/DTD/svg11.dtd"><svg t="1508217652446" class="icon" style="" viewBox="0 0 1024 1024" version="1.1" xmlns="http://www.w3.org/2000/svg" p-id="21914" xmlns:xlink="http://www.w3.org/1999/xlink" width="200" height="200"><defs><style type="text/css"></style></defs><path d="M68.266667 0v102.4h102.4v204.8H68.266667v102.4h102.4v204.8H68.266667v102.4h102.4v204.8H68.266667v102.4h377.457777a409.258667 409.258667 0 0 1-80.952888-136.533333H273.066667V136.533333h614.4v228.181334a409.258667 409.258667 0 0 1 136.533333 80.952889V0z" p-id="21915" fill="#d4237a"></path><path d="M0 170.666667h136.533333v68.266666H0zM0 477.866667h136.533333v68.266666H0zM0 785.066667h136.533333v68.266666H0zM341.333333 204.8h68.266667v68.266667H341.333333zM477.866667 204.8h341.333333v68.266667H477.866667zM341.333333 341.333333h68.266667v68.266667H341.333333zM477.866667 341.333333h341.333333v68.266667H477.866667zM341.333333 477.866667h68.266667v68.266666H341.333333zM477.866667 477.866667h25.6v68.266666H477.866667zM341.333333 614.4h68.266667v68.266667H341.333333zM750.933333 477.866667a273.066667 273.066667 0 1 0 273.066667 273.066666 273.066667 273.066667 0 0 0-273.066667-273.066666z m0 477.866666a204.8 204.8 0 1 1 204.8-204.8 204.8 204.8 0 0 1-204.8 204.8z" p-id="21916" fill="#d4237a"></path><path d="M719.644444 719.644444h-136.533333v68.266667h204.8v-204.8h-68.266667v136.533333z" p-id="21917" fill="#d4237a"></path></svg>